<svg width="1014" height="523" viewBox="0 0 1014 523" fill="none" xmlns="http://www.w3.org/2000/svg">
<path d="M233.895 384.854L194.625 455.37H211.695L251.84 384.854H233.895Z" fill="white"/>
<path d="M155.354 384.854H137.408L185.968 470.149V520.82H203.28V471.638L194.624 455.37L155.354 384.854Z" fill="white"/>
<path d="M366.063 494.218L288.579 384.854H272.956V520.82H290.268V411.667L367.541 520.82H383.376V384.854H366.063V494.218Z" fill="white"/>
<path d="M559.457 384.854H542.145V520.82H631.874V507.308H559.457V384.854Z" fill="white"/>
<path d="M877.714 450.725C883.062 448.192 887.248 444.428 890.276 439.43C893.302 434.436 894.816 428.207 894.816 420.746C894.816 409.345 891.682 400.514 885.42 394.249C879.156 387.987 869.338 384.854 855.969 384.854H793.053V520.82H859.347C872.718 520.82 882.851 517.653 889.75 511.319C896.645 504.985 900.095 495.204 900.095 481.972C900.095 472.544 898.089 465.399 894.079 460.543C890.066 455.687 884.609 452.415 877.714 450.725ZM810.365 398.155H851.746C862.302 398.155 869.409 400.161 873.07 404.172C876.729 408.183 878.559 414.131 878.559 422.012C878.559 428.629 876.765 434.013 873.176 438.163C869.587 442.316 863.498 444.391 854.914 444.391H810.365V398.155ZM876.448 501.713C872.225 505.725 865.538 507.73 856.39 507.73H810.364V457.482H853.646C864.763 457.482 872.4 459.487 876.554 463.499C880.703 467.511 882.782 473.458 882.782 481.34C882.782 490.913 880.67 497.701 876.448 501.713Z" fill="white"/>
<path d="M1009.46 468.038C1006.93 462.971 1002.56 458.574 996.37 454.843C990.175 451.115 981.519 447.912 970.402 445.237C961.112 442.987 953.861 440.839 948.656 438.797C943.446 436.758 939.752 434.294 937.571 431.407C935.387 428.523 934.299 424.756 934.299 420.112C934.299 411.809 937.393 405.966 943.588 402.588C949.78 399.21 958.647 397.521 970.19 397.521C976.523 397.521 982.646 398.016 988.558 398.999C994.47 399.985 999.959 401.394 1005.03 403.221V388.02C1001.37 386.753 996.159 385.559 989.403 384.431C982.647 383.306 975.327 382.742 967.446 382.742C950.413 382.742 937.745 386.087 929.442 392.771C921.136 399.457 916.986 408.572 916.986 420.112C916.986 429.966 920.011 437.814 926.065 443.653C932.115 449.495 942.602 454.245 957.523 457.904C966.951 460.157 974.483 462.374 980.114 464.554C985.742 466.738 989.789 469.41 992.253 472.577C994.714 475.744 995.947 480.003 995.947 485.35C995.947 493.937 992.919 499.884 986.869 503.19C980.815 506.499 971.737 508.152 959.634 508.152C952.593 508.152 945.733 507.555 939.049 506.358C932.362 505.164 926.064 503.438 920.153 501.185V516.598C930.568 520.82 944.221 522.932 961.112 522.932C978.424 522.932 991.442 519.659 1000.17 513.114C1008.9 506.569 1013.26 497.315 1013.26 485.351C1013.26 478.878 1011.99 473.105 1009.46 468.038Z" fill="white"/>
<path d="M520.399 384.854H500.553L462.761 440.38L481.942 440.478L520.399 384.854Z" fill="white"/>
<path d="M482.05 465.868L462.761 440.38L424.968 384.854H405.123L452.415 453.259L404.489 520.82H424.547L462.761 466.56L500.975 520.82H521.032L482.05 465.868Z" fill="white"/>
<path d="M123.683 384.854H105.737L61.8223 503.296H78.8082L123.683 384.854Z" fill="white"/>
<path d="M18.1199 384.854H0.173828L51.8999 520.82H68.7518L61.8229 503.296L18.1199 384.854Z" fill="white"/>
<path d="M771.271 520.82H753.325L709.41 402.377H726.396L771.271 520.82Z" fill="white"/>
<path d="M665.707 520.82H647.761L699.487 384.854H716.339L709.41 402.377L665.707 520.82Z" fill="white"/>
<path d="M591.823 227.48L547.915 159.887L595.862 99.2L579.532 75.5759L531.577 135.041L441.194 1.31787L546.163 1.02893L580.454 50.6379L620.513 0.962891L692.267 1.27588L614.433 99.7939L649.465 150.476L591.823 227.48ZM566.282 160.738L592.692 201.392L631.064 150.127L604.746 112.052L566.282 160.738ZM469.269 16.1779L532.637 109.93L570.675 62.7609L538.344 15.9869L469.269 16.1779ZM589.31 63.45L605.547 86.9399L661.531 16.0789L627.632 15.9309L589.31 63.45Z" fill="#5FB5DF"/>
<path d="M526.239 310.661L321.168 0.956055H414.715L575.244 248.669L526.239 310.661ZM348.976 15.894L527.309 285.219L556.885 247.806L406.594 15.895L348.976 15.894Z" fill="#5FB5DF"/>
</svg>
